<?xml version="1.0" encoding="UTF-8" standalone="no"?>
<!DOCTYPE svg PUBLIC "-//W3C//DTD SVG 1.1//EN" "http://www.w3.org/Graphics/SVG/1.1/DTD/svg11.dtd">
<svg xmlns="http://www.w3.org/2000/svg" xmlns:xl="http://www.w3.org/1999/xlink" xmlns:dc="http://purl.org/dc/elements/1.1/" version="1.1" viewBox="0 0 80 80" width="80" height="80">
  <defs/>
  <g id="Canvas_1" stroke="none" fill-opacity="1" stroke-opacity="1" fill="none" stroke-dasharray="none">
    <title>Canvas 1</title>
    <g id="Canvas_1_Layer_1">
      <title>Layer 1</title>
      <g id="Group_2">
        <title>layer1</title>
        <g id="Group_3">
          <title>g3535</title>
          <g id="Graphic_9">
            <title>path2742</title>
            <path d="M 54.49454 36.56457 L 71.096975 26.430743 L 78.53504 41.080454 C 80.33207 49.08422 70.48569 52.021077 62.579725 51.54411 L 54.49454 36.56457 Z" fill="#005392"/>
          </g>
          <g id="Graphic_8">
            <title>path2743</title>
            <path d="M 50.721256 47.028226 L 41.98991 62.77901 L 50.721256 78.75001 L 50.93729 72.36181 L 58.914944 72.36181 C 61.82604 72.61856 65.59835 70.67218 67.00013 67.845925 L 77.24176 48.68033 C 73.863725 52.09514 69.51985 52.976 64.5211 52.976 L 51.04482 52.976 L 50.721256 47.028226 Z" fill="#005392"/>
          </g>
          <g id="Graphic_7">
            <title>path2751</title>
            <path d="M 31.2116 27.608842 L 14.482256 17.697204 L 23.40735 3.94119 C 29.384538 -1.5482794 36.677288 5.821508 40.105694 13.115158 L 31.2116 27.608842 Z" fill="#005392"/>
          </g>
          <g id="Graphic_6">
            <title>path2752</title>
            <path d="M 41.99766 25.90045 L 59.71416 26.05549 L 69.14204 10.503194 L 63.57076 13.411411 L 59.69866 6.2848474 C 58.50613 3.560011 55.00991 1.1339953 51.90991 1.254274 L 30.539287 1.4083256 C 35.100163 2.768423 37.96282 6.220659 40.389538 10.686871 L 46.93054 22.724618 Z" fill="#005392"/>
          </g>
          <g id="Graphic_5">
            <title>path2753</title>
            <path d="M 1.6802347 26.78822 L 6.863822 30.838 L 1.9851972 40.183794 C -.4542122 44.494276 3.7364066 48.69218 6.406475 50.153695 C 9.034985 51.5925 13.114391 51.763337 16.926132 51.711 L 23.78682 40.49585 L 28.96963 43.29939 L 19.974788 26.632195 L 1.679944 26.78822 Z" fill="#005392"/>
          </g>
          <g id="Graphic_4">
            <title>path2754</title>
            <path d="M 2.4425344 48.440366 L 13.571534 69.00131 C 15.808378 71.85719 20.026316 72.53265 24.396347 72.42896 L 36.13566 72.42896 L 36.13566 52.957236 L 13.87669 52.80121 C 10.421062 53.009574 5.8981625 52.28277 2.4425344 48.440366 Z" fill="#005392"/>
          </g>
        </g>
      </g>
    </g>
  </g>
</svg>
